<?xml version="1.0" encoding="UTF-8"?><!DOCTYPE svg PUBLIC "-//W3C//DTD SVG 1.1//EN" "http://www.w3.org/Graphics/SVG/1.1/DTD/svg11.dtd"><svg xmlns="http://www.w3.org/2000/svg" xmlns:xlink="http://www.w3.org/1999/xlink"><symbol id="arrow-big" viewBox="0 0 15.08 32.527">
  <path d="M0,0,15.677,13.034,30.412,0" transform="translate(1.059 31.471) rotate(-90)" fill="none" stroke="inherit" stroke-linecap="round" stroke-width="1.5"/>
</symbol><symbol id="instagram" viewBox="0 0 16 16">
  <path d="M47.825,11.3a.509.509,0,0,0-.375.15.429.429,0,0,0-.15.375.509.509,0,0,0,.15.375.608.608,0,0,0,.8,0,.45.45,0,0,0,.15-.4.7.7,0,0,0-.15-.375A.775.775,0,0,0,47.825,11.3Z" transform="translate(-35.475 -8.475)" fill="currentColor"/>
  <path d="M22.552,20.1a2.352,2.352,0,1,0,0,4.7,2.352,2.352,0,0,0,0-4.7Z" transform="translate(-14.552 -14.452)" fill="currentColor"/>
  <path d="M11.275,0H4.725A4.705,4.705,0,0,0,0,4.725V11.25A4.711,4.711,0,0,0,4.725,16H11.25A4.711,4.711,0,0,0,16,11.275V4.725A4.705,4.705,0,0,0,11.275,0ZM8.025,11.925A3.925,3.925,0,1,1,11.925,8,3.932,3.932,0,0,1,8.025,11.925ZM13.9,3.375a1.611,1.611,0,0,1-.45,1.05,1.511,1.511,0,0,1-1.075.45,1.494,1.494,0,0,1-1.075-.45,1.511,1.511,0,0,1-.45-1.075,1.454,1.454,0,0,1,.45-1.075,1.511,1.511,0,0,1,1.075-.45,1.454,1.454,0,0,1,1.075.45,1.861,1.861,0,0,1,.45,1.1Z" fill="currentColor"/>
</symbol><symbol id="mail" viewBox="0 0 19.272 15.887">
  <path d="M5.855,3.053a2.266,2.266,0,0,0-2.163,1.62l9.521,6.27,9.539-6.27a2.266,2.266,0,0,0-2.163-1.62ZM3.585,6.876V16.67a2.269,2.269,0,0,0,2.27,2.27H20.588a2.269,2.269,0,0,0,2.27-2.27V6.876l-9.044,5.96a1.13,1.13,0,0,1-1.2,0Z" transform="translate(-3.585 -3.053)" fill="currentColor"/>
</symbol><symbol id="mouse" viewBox="0 0 21.675 31.996">
  <g id="&#x41A;&#x43E;&#x43D;&#x442;&#x443;&#x440;_7534" data-name="&#x41A;&#x43E;&#x43D;&#x442;&#x443;&#x440; 7534" fill="none">
    <path d="M9.289,0h3.1a9.289,9.289,0,0,1,9.289,9.289V22.707A9.289,9.289,0,0,1,12.386,32h-3.1A9.289,9.289,0,0,1,0,22.707V9.289A9.289,9.289,0,0,1,9.289,0Z" stroke="none"/>
    <path d="M 9.289175987243652 0.9999980926513672 C 4.718505859375 0.9999980926513672 0.9999961853027344 4.718507766723633 0.9999961853027344 9.289167404174805 L 0.9999961853027344 22.70686721801758 C 0.9999961853027344 27.27752685546875 4.718505859375 30.99603652954102 9.289175987243652 30.99603652954102 L 12.3855562210083 30.99603652954102 C 16.95622634887695 30.99603652954102 20.67473602294922 27.27752685546875 20.67473602294922 22.70686721801758 L 20.67473602294922 9.289167404174805 C 20.67473602294922 4.718507766723633 16.95622634887695 0.9999980926513672 12.3855562210083 0.9999980926513672 L 9.289175987243652 0.9999980926513672 M 9.289175987243652 -1.9073486328125e-06 L 12.3855562210083 -1.9073486328125e-06 C 17.51582717895508 -1.9073486328125e-06 21.67473602294922 4.158906936645508 21.67473602294922 9.289167404174805 L 21.67473602294922 22.70686721801758 C 21.67473602294922 27.83712768554688 17.51582717895508 31.99603652954102 12.3855562210083 31.99603652954102 L 9.289175987243652 31.99603652954102 C 4.158906936645508 31.99603652954102 -3.814697265625e-06 27.83712768554688 -3.814697265625e-06 22.70686721801758 L -3.814697265625e-06 9.289167404174805 C -3.814697265625e-06 4.158906936645508 4.158906936645508 -1.9073486328125e-06 9.289175987243652 -1.9073486328125e-06 Z" stroke="none" fill="#2e2e2e"/>
  </g>
  <g id="&#x41A;&#x43E;&#x43D;&#x442;&#x443;&#x440;_7535" data-name="&#x41A;&#x43E;&#x43D;&#x442;&#x443;&#x440; 7535" transform="translate(9.289 7.225)" fill="none">
    <path d="M1.548,0A1.548,1.548,0,0,1,3.1,1.548v3.1a1.548,1.548,0,0,1-3.1,0v-3.1A1.548,1.548,0,0,1,1.548,0Z" stroke="none"/>
    <path d="M 1.548195123672485 1.000000476837158 C 1.245915174484253 1.000000476837158 0.999995231628418 1.245920181274414 0.999995231628418 1.548190116882324 L 0.999995231628418 4.644590377807617 C 0.999995231628418 4.946860313415527 1.245915174484253 5.192780494689941 1.548195123672485 5.192780494689941 C 1.850475072860718 5.192780494689941 2.096395015716553 4.946860313415527 2.096395015716553 4.644590377807617 L 2.096395015716553 1.548190116882324 C 2.096395015716553 1.245920181274414 1.850475072860718 1.000000476837158 1.548195123672485 1.000000476837158 M 1.548195123672485 4.76837158203125e-07 C 2.403235197067261 4.76837158203125e-07 3.096395015716553 0.6931500434875488 3.096395015716553 1.548190116882324 L 3.096395015716553 4.644590377807617 C 3.096395015716553 5.499630451202393 2.403235197067261 6.192780017852783 1.548195123672485 6.192780017852783 C 0.69315505027771 6.192780017852783 -4.76837158203125e-06 5.499630451202393 -4.76837158203125e-06 4.644590377807617 L -4.76837158203125e-06 1.548190116882324 C -4.76837158203125e-06 0.6931500434875488 0.69315505027771 4.76837158203125e-07 1.548195123672485 4.76837158203125e-07 Z" stroke="none" fill="#2e2e2e"/>
  </g>
  <path id="&#x41A;&#x43E;&#x43D;&#x442;&#x443;&#x440;_7536" data-name="&#x41A;&#x43E;&#x43D;&#x442;&#x443;&#x440; 7536" d="M0,0V4.129" transform="translate(10.837 0.516)" fill="none" stroke="#2e2e2e" stroke-linecap="round" stroke-width="1"/>
  <path id="&#x41A;&#x43E;&#x43D;&#x442;&#x443;&#x440;_7537" data-name="&#x41A;&#x43E;&#x43D;&#x442;&#x443;&#x440; 7537" d="M0,0H9.289" transform="translate(0.516 11.87)" fill="none" stroke="#2e2e2e" stroke-width="1"/>
  <path id="&#x41A;&#x43E;&#x43D;&#x442;&#x443;&#x440;_7538" data-name="&#x41A;&#x43E;&#x43D;&#x442;&#x443;&#x440; 7538" d="M0,0H9.289" transform="translate(11.87 11.87)" fill="none" stroke="#2e2e2e" stroke-width="1"/>
  <g id="&#x421;&#x433;&#x440;&#x443;&#x43F;&#x43F;&#x438;&#x440;&#x43E;&#x432;&#x430;&#x442;&#x44C;_29967" data-name="&#x421;&#x433;&#x440;&#x443;&#x43F;&#x43F;&#x438;&#x440;&#x43E;&#x432;&#x430;&#x442;&#x44C; 29967" transform="translate(4.74 23.822)">
    <g id="&#x421;&#x433;&#x440;&#x443;&#x43F;&#x43F;&#x438;&#x440;&#x43E;&#x432;&#x430;&#x442;&#x44C;_29965" data-name="&#x421;&#x433;&#x440;&#x443;&#x43F;&#x43F;&#x438;&#x440;&#x43E;&#x432;&#x430;&#x442;&#x44C; 29965">
      <path id="&#x41A;&#x43E;&#x43D;&#x442;&#x443;&#x440;_7531" data-name="&#x41A;&#x43E;&#x43D;&#x442;&#x443;&#x440; 7531" d="M.583,0,0,1.166" transform="matrix(0.875, 0.485, -0.485, 0.875, 0.565, 0)" fill="none" stroke="#2e2e2e" stroke-linecap="round" stroke-width="1"/>
      <path id="&#x41A;&#x43E;&#x43D;&#x442;&#x443;&#x440;_7532" data-name="&#x41A;&#x43E;&#x43D;&#x442;&#x443;&#x440; 7532" d="M.583,0,0,1.166" transform="translate(2.515 2.204) rotate(9)" fill="none" stroke="#2e2e2e" stroke-linecap="round" stroke-width="1"/>
      <path id="&#x41A;&#x43E;&#x43D;&#x442;&#x443;&#x440;_7533" data-name="&#x41A;&#x43E;&#x43D;&#x442;&#x443;&#x440; 7533" d="M.583,0,0,1.166" transform="translate(4.47 3.409) rotate(-13)" fill="none" stroke="#2e2e2e" stroke-linecap="round" stroke-width="1"/>
    </g>
    <g id="&#x421;&#x433;&#x440;&#x443;&#x43F;&#x43F;&#x438;&#x440;&#x43E;&#x432;&#x430;&#x442;&#x44C;_29966" data-name="&#x421;&#x433;&#x440;&#x443;&#x43F;&#x43F;&#x438;&#x440;&#x43E;&#x432;&#x430;&#x442;&#x44C; 29966" transform="translate(6.959 0.001)">
      <path id="&#x41A;&#x43E;&#x43D;&#x442;&#x443;&#x440;_7531-2" data-name="&#x41A;&#x43E;&#x43D;&#x442;&#x443;&#x440; 7531" d="M.583,1.166,0,0" transform="matrix(-0.875, 0.485, -0.485, -0.875, 5.3, 1.02)" fill="none" stroke="#2e2e2e" stroke-linecap="round" stroke-width="1"/>
      <path id="&#x41A;&#x43E;&#x43D;&#x442;&#x443;&#x440;_7532-2" data-name="&#x41A;&#x43E;&#x43D;&#x442;&#x443;&#x440; 7532" d="M.583,1.166,0,0" transform="translate(2.968 3.355) rotate(171)" fill="none" stroke="#2e2e2e" stroke-linecap="round" stroke-width="1"/>
      <path id="&#x41A;&#x43E;&#x43D;&#x442;&#x443;&#x440;_7533-2" data-name="&#x41A;&#x43E;&#x43D;&#x442;&#x443;&#x440; 7533" d="M.583,1.166,0,0" transform="translate(0.568 4.545) rotate(-167)" fill="none" stroke="#2e2e2e" stroke-linecap="round" stroke-width="1"/>
    </g>
  </g>
</symbol><symbol id="telegram" viewBox="0 0 19.254 16.002">
  <path d="M59.953,70.285s1.781-.693,1.633.99c-.049.693-.495,3.117-.841,5.739l-1.187,7.768s-.1,1.138-.99,1.336a3.948,3.948,0,0,1-2.474-.891c-.2-.148-3.711-2.375-4.948-3.463a.937.937,0,0,1,.049-1.583l5.2-4.948c.594-.594,1.187-1.979-1.286-.3l-6.927,4.7a2.907,2.907,0,0,1-2.276.049l-3.216-.99s-1.187-.742.841-1.484C48.475,74.887,54.56,72.512,59.953,70.285Z" transform="translate(-42.341 -70.144)" fill="currentColor"/>
</symbol></svg>