<svg xmlns="http://www.w3.org/2000/svg" width="16" height="16" viewBox="0 0 16 16">
  <path d="M47.825,11.3a.509.509,0,0,0-.375.15.429.429,0,0,0-.15.375.509.509,0,0,0,.15.375.608.608,0,0,0,.8,0,.45.45,0,0,0,.15-.4.7.7,0,0,0-.15-.375A.775.775,0,0,0,47.825,11.3Z" transform="translate(-35.475 -8.475)" fill="currentColor"/>
  <path d="M22.552,20.1a2.352,2.352,0,1,0,0,4.7,2.352,2.352,0,0,0,0-4.7Z" transform="translate(-14.552 -14.452)" fill="currentColor"/>
  <path d="M11.275,0H4.725A4.705,4.705,0,0,0,0,4.725V11.25A4.711,4.711,0,0,0,4.725,16H11.25A4.711,4.711,0,0,0,16,11.275V4.725A4.705,4.705,0,0,0,11.275,0ZM8.025,11.925A3.925,3.925,0,1,1,11.925,8,3.932,3.932,0,0,1,8.025,11.925ZM13.9,3.375a1.611,1.611,0,0,1-.45,1.05,1.511,1.511,0,0,1-1.075.45,1.494,1.494,0,0,1-1.075-.45,1.511,1.511,0,0,1-.45-1.075,1.454,1.454,0,0,1,.45-1.075,1.511,1.511,0,0,1,1.075-.45,1.454,1.454,0,0,1,1.075.45,1.861,1.861,0,0,1,.45,1.1Z" fill="currentColor"/>
</svg>
