<svg id="Компонент_15_2" data-name="Компонент 15 – 2" xmlns="http://www.w3.org/2000/svg" width="21.675" height="31.996" viewBox="0 0 21.675 31.996">
  <g id="Контур_7534" data-name="Контур 7534" fill="none">
    <path d="M9.289,0h3.1a9.289,9.289,0,0,1,9.289,9.289V22.707A9.289,9.289,0,0,1,12.386,32h-3.1A9.289,9.289,0,0,1,0,22.707V9.289A9.289,9.289,0,0,1,9.289,0Z" stroke="none"/>
    <path d="M 9.289175987243652 0.9999980926513672 C 4.718505859375 0.9999980926513672 0.9999961853027344 4.718507766723633 0.9999961853027344 9.289167404174805 L 0.9999961853027344 22.70686721801758 C 0.9999961853027344 27.27752685546875 4.718505859375 30.99603652954102 9.289175987243652 30.99603652954102 L 12.3855562210083 30.99603652954102 C 16.95622634887695 30.99603652954102 20.67473602294922 27.27752685546875 20.67473602294922 22.70686721801758 L 20.67473602294922 9.289167404174805 C 20.67473602294922 4.718507766723633 16.95622634887695 0.9999980926513672 12.3855562210083 0.9999980926513672 L 9.289175987243652 0.9999980926513672 M 9.289175987243652 -1.9073486328125e-06 L 12.3855562210083 -1.9073486328125e-06 C 17.51582717895508 -1.9073486328125e-06 21.67473602294922 4.158906936645508 21.67473602294922 9.289167404174805 L 21.67473602294922 22.70686721801758 C 21.67473602294922 27.83712768554688 17.51582717895508 31.99603652954102 12.3855562210083 31.99603652954102 L 9.289175987243652 31.99603652954102 C 4.158906936645508 31.99603652954102 -3.814697265625e-06 27.83712768554688 -3.814697265625e-06 22.70686721801758 L -3.814697265625e-06 9.289167404174805 C -3.814697265625e-06 4.158906936645508 4.158906936645508 -1.9073486328125e-06 9.289175987243652 -1.9073486328125e-06 Z" stroke="none" fill="#2e2e2e"/>
  </g>
  <g id="Контур_7535" data-name="Контур 7535" transform="translate(9.289 7.225)" fill="none">
    <path d="M1.548,0A1.548,1.548,0,0,1,3.1,1.548v3.1a1.548,1.548,0,0,1-3.1,0v-3.1A1.548,1.548,0,0,1,1.548,0Z" stroke="none"/>
    <path d="M 1.548195123672485 1.000000476837158 C 1.245915174484253 1.000000476837158 0.999995231628418 1.245920181274414 0.999995231628418 1.548190116882324 L 0.999995231628418 4.644590377807617 C 0.999995231628418 4.946860313415527 1.245915174484253 5.192780494689941 1.548195123672485 5.192780494689941 C 1.850475072860718 5.192780494689941 2.096395015716553 4.946860313415527 2.096395015716553 4.644590377807617 L 2.096395015716553 1.548190116882324 C 2.096395015716553 1.245920181274414 1.850475072860718 1.000000476837158 1.548195123672485 1.000000476837158 M 1.548195123672485 4.76837158203125e-07 C 2.403235197067261 4.76837158203125e-07 3.096395015716553 0.6931500434875488 3.096395015716553 1.548190116882324 L 3.096395015716553 4.644590377807617 C 3.096395015716553 5.499630451202393 2.403235197067261 6.192780017852783 1.548195123672485 6.192780017852783 C 0.69315505027771 6.192780017852783 -4.76837158203125e-06 5.499630451202393 -4.76837158203125e-06 4.644590377807617 L -4.76837158203125e-06 1.548190116882324 C -4.76837158203125e-06 0.6931500434875488 0.69315505027771 4.76837158203125e-07 1.548195123672485 4.76837158203125e-07 Z" stroke="none" fill="#2e2e2e"/>
  </g>
  <path id="Контур_7536" data-name="Контур 7536" d="M0,0V4.129" transform="translate(10.837 0.516)" fill="none" stroke="#2e2e2e" stroke-linecap="round" stroke-width="1"/>
  <path id="Контур_7537" data-name="Контур 7537" d="M0,0H9.289" transform="translate(0.516 11.87)" fill="none" stroke="#2e2e2e" stroke-width="1"/>
  <path id="Контур_7538" data-name="Контур 7538" d="M0,0H9.289" transform="translate(11.87 11.87)" fill="none" stroke="#2e2e2e" stroke-width="1"/>
  <g id="Сгруппировать_29967" data-name="Сгруппировать 29967" transform="translate(4.74 23.822)">
    <g id="Сгруппировать_29965" data-name="Сгруппировать 29965">
      <path id="Контур_7531" data-name="Контур 7531" d="M.583,0,0,1.166" transform="matrix(0.875, 0.485, -0.485, 0.875, 0.565, 0)" fill="none" stroke="#2e2e2e" stroke-linecap="round" stroke-width="1"/>
      <path id="Контур_7532" data-name="Контур 7532" d="M.583,0,0,1.166" transform="translate(2.515 2.204) rotate(9)" fill="none" stroke="#2e2e2e" stroke-linecap="round" stroke-width="1"/>
      <path id="Контур_7533" data-name="Контур 7533" d="M.583,0,0,1.166" transform="translate(4.47 3.409) rotate(-13)" fill="none" stroke="#2e2e2e" stroke-linecap="round" stroke-width="1"/>
    </g>
    <g id="Сгруппировать_29966" data-name="Сгруппировать 29966" transform="translate(6.959 0.001)">
      <path id="Контур_7531-2" data-name="Контур 7531" d="M.583,1.166,0,0" transform="matrix(-0.875, 0.485, -0.485, -0.875, 5.3, 1.02)" fill="none" stroke="#2e2e2e" stroke-linecap="round" stroke-width="1"/>
      <path id="Контур_7532-2" data-name="Контур 7532" d="M.583,1.166,0,0" transform="translate(2.968 3.355) rotate(171)" fill="none" stroke="#2e2e2e" stroke-linecap="round" stroke-width="1"/>
      <path id="Контур_7533-2" data-name="Контур 7533" d="M.583,1.166,0,0" transform="translate(0.568 4.545) rotate(-167)" fill="none" stroke="#2e2e2e" stroke-linecap="round" stroke-width="1"/>
    </g>
  </g>
</svg>
