<svg xmlns="http://www.w3.org/2000/svg" width="19.254" height="16.002" viewBox="0 0 19.254 16.002">
  <path d="M59.953,70.285s1.781-.693,1.633.99c-.049.693-.495,3.117-.841,5.739l-1.187,7.768s-.1,1.138-.99,1.336a3.948,3.948,0,0,1-2.474-.891c-.2-.148-3.711-2.375-4.948-3.463a.937.937,0,0,1,.049-1.583l5.2-4.948c.594-.594,1.187-1.979-1.286-.3l-6.927,4.7a2.907,2.907,0,0,1-2.276.049l-3.216-.99s-1.187-.742.841-1.484C48.475,74.887,54.56,72.512,59.953,70.285Z" transform="translate(-42.341 -70.144)" fill="currentColor"/>
</svg>
